<svg xmlns="http://www.w3.org/2000/svg" width="132" height="338" viewBox="0 0 132 338">
    <g fill="none" fill-rule="nonzero">
        <g fill="#E3E7F2">
            <path d="M306.964 163.238v-40.464H42.442l-.058-.058-2.312-2.254a6.023 6.023 0 0 0-4.104-1.619h-1.792l1.271 3.931h-.173v40.465a5.798 5.798 0 0 0 5.78 5.78h5.78v109.197a161.675 161.675 0 0 1-17.341-24.163C-13.885 180.377 5.117 85.863 73.6 34.679c68.482-51.184 164.508-42.644 222.883 19.823 58.374 62.467 60.4 158.85 4.7 223.714V169.018a5.755 5.755 0 0 0 4.74-2.485 5.865 5.865 0 0 0 1.04-3.295z"/>
            <path d="M306.964 122.774v40.464a5.87 5.87 0 0 1-1.04 3.295 5.751 5.751 0 0 1-4.74 2.485v109.197a158.95 158.95 0 0 1-17.342 17.4 160.992 160.992 0 0 1-24.8 17.92c-69.944 41.229-159.388 26.342-212.207-35.32V169.017h-5.78a5.798 5.798 0 0 1-5.781-5.78v-40.464h.173l-1.271-3.931h1.792c1.523 0 2.99.579 4.104 1.618l2.312 2.254.058.058h264.522z"/>
        </g>
        <path fill="#7FABFA" d="M301.183 169.018v132.955c-.019 6.378-5.183 11.543-11.561 11.562H58.396c-6.377-.02-11.542-5.184-11.561-11.562V169.018h254.348z"/>
        <path fill="#E3E7F2" d="M283.842 169.018v132.955c-.02 6.378-5.184 11.543-11.562 11.562H58.396c-6.377-.02-11.542-5.184-11.561-11.562V169.018h237.007z"/>
        <path fill="#A4C2F7" d="M306.964 122.774v40.464a5.87 5.87 0 0 1-1.04 3.295 5.751 5.751 0 0 1-4.74 2.485H41.053a5.798 5.798 0 0 1-5.78-5.78v-40.464h271.69z"/>
        <path fill="#D4E1F4" d="M98.86 209.483h144.517a5.78 5.78 0 0 1 5.78 5.78v46.246a5.78 5.78 0 0 1-5.78 5.78H98.86a5.78 5.78 0 0 1-5.78-5.78v-46.245a5.78 5.78 0 0 1 5.78-5.78z"/>
        <path fill="#A4C2F7" d="M296.501 46.873l-5.839 1.735h-.057l-37.921 11.33-7.92 2.37-.058.057-7.861 2.37h-.058l-36.244 10.753-7.92 2.37-7.688 2.312-36.707 10.983-7.804 2.312h-.058l-7.804 2.312h-.057l-36.476 10.925-7.861 2.37-7.804 2.313h-.058l-36.418 10.868-1.503.462-.174.058-6.185 1.85v-.116l-.578-1.734-1.271-3.931-.578-1.908-8.151-25.608-1.445-4.51a5.837 5.837 0 0 1 4.105-7.283l5.086-1.503 25.84-7.688 7.92-2.37 7.803-2.312h.058l36.476-10.926 7.861-2.37 7.688-2.312h.058l36.591-10.925 7.804-2.313 7.746-2.312 36.534-10.867h.058l7.861-2.37 7.747-2.371h.057l10.521-3.18h.058l25.897-7.687h.057l5.723-1.734 3.295-.983a6.208 6.208 0 0 1 3.7 0l1.503.81v.057a5.981 5.981 0 0 1 2.428 2.89L296.5 46.873z"/>
        <g fill="#FFF">
            <path d="M88.149 313.535a167.602 167.602 0 0 0 85.21 23.122c2.92 0 5.806-.147 8.69-.294a167.413 167.413 0 0 1-76.522-22.829H88.149zM32.298 78.016l-.049.015-5.097 1.503a5.849 5.849 0 0 0-3.595 2.777 5.826 5.826 0 0 0-.518 4.507l1.448 4.508.005.017a167.482 167.482 0 0 0 4.05 162.709 161.682 161.682 0 0 0 17.378 24.163v23.758c.019 6.378 5.195 11.543 11.586 11.562h17.378c-6.39-.02-11.567-5.184-11.586-11.562v-23.758a161.682 161.682 0 0 1-17.378-24.163 167.48 167.48 0 0 1-4.05-162.708l-.005-.017-1.448-4.509a5.826 5.826 0 0 1 .518-4.507 5.851 5.851 0 0 1 3.595-2.776l5.097-1.504.048-.014C78.93 32.795 128.182 4.363 182.048 1.601a171.095 171.095 0 0 0-8.689-.222C116.345 1.35 63.217 30.214 32.298 78.016z"/>
        </g>
        <g>
            <path fill="#FFF" d="M30.026 93.57a161.614 161.614 0 0 0-18.344 69.657l-.096 5.452H.01l.102-5.834A173.214 173.214 0 0 1 19.775 88.19l10.251 5.38z"/>
            <g fill="#428DFF">
                <path d="M6.163 139.185c.634.415 1.345.7 2.091.836a6.226 6.226 0 0 0 4.324-.917 6.006 6.006 0 0 0 2.42-3.59 6.133 6.133 0 0 0-.775-4.255l-.69-.862a4.54 4.54 0 0 0-.897-.744 3.796 3.796 0 0 0-.936-.579 8.449 8.449 0 0 0-1.097-.386 5.88 5.88 0 0 0-4.383.698 6.054 6.054 0 0 0-1.728 8.242 5.907 5.907 0 0 0 1.67 1.557zM98.417 203.411c-6.392.006-11.571 5.186-11.578 11.578v46.31c.006 6.391 5.186 11.57 11.578 11.577h144.717c6.391-.006 11.57-5.186 11.578-11.577v-46.31c-.007-6.392-5.187-11.57-11.578-11.578H98.417zm0 57.888v-46.31h144.717l.008 46.31H98.417z"/>
                <path d="M301.448 49.076a5.809 5.809 0 0 0 .402-4.466L289.803 6.74c-2.078-6.109-8.642-9.454-14.806-7.544L241.914 9.04C164.932-23.949 75.372 2.786 29.072 72.578l-3.192.953a12.093 12.093 0 0 0-7.173 5.882 11.239 11.239 0 0 0-.766 8.717l.742 2.334a175.839 175.839 0 0 0-8.522 19.65 5.723 5.723 0 0 0 3.584 7.434 5.896 5.896 0 0 0 7.313-3.526c.868-2.414 1.869-4.777 2.849-7.147l5.046 15.855v40.16c.006 6.392 5.186 11.571 11.578 11.578v86.49a161.95 161.95 0 0 1-28.944-92.278l.096-5.452.286-5.584a5.897 5.897 0 0 0-5.284-6.155 5.723 5.723 0 0 0-6.267 5.38l-.306 5.978-.102 5.833a173.518 173.518 0 0 0 40.52 111.424v21.717c.011 9.586 7.78 17.356 17.367 17.366h29.156c53.618 30.873 119.617 30.873 173.235 0h29.156c9.587-.01 17.356-7.78 17.367-17.366v-21.719c56.314-67.226 53.645-165.895-6.222-229.977.327-.314.616-.667.859-1.05zm-12.426-6.592l-.251.07-32.42 9.69 22.609-41.397 10.062 31.637zM47.288 114.656l23.138-42.344 36.494-10.897-23.137 42.346-36.495 10.895zm219.256 13.503h34.477l.008 33.41-34.485-33.41zm-16.563 0c.062.065.083.153.149.217l35.625 34.515H247.68l-35.817-34.732h38.118zm-54.674 0c.063.065.084.153.15.217l35.591 34.515h-38.016l-35.863-34.732h38.138zm-54.703 0c.063.067.084.156.15.22l35.637 34.512h-38.059l-35.819-34.732h38.09zm-54.646 0c.062.065.083.153.15.217l35.594 34.515H83.685l-35.816-34.732h38.089zM40.53 162.89V137.17l26.525 25.72H40.53zm-6.517-79.705l.141-.042 20.508-6.124-17.76 32.503-6.49-20.41-1.208-4.491 4.81-1.436zm88.67-26.478l36.512-10.903-23.141 42.35-36.508 10.899 23.138-42.346zm52.277-15.61l36.499-10.9-23.108 42.373-36.546 10.9 23.155-42.374zm52.252-15.604l15.665-4.678c.136-.03.271-.065.404-.104l20.413-6.071L240.561 57l-36.465 10.875 23.116-42.38zM173.67 6.596a160.62 160.62 0 0 1 49.992 7.874L47.435 67.094A161.384 161.384 0 0 1 173.67 6.596zm0 324.167a162.367 162.367 0 0 1-60.058-11.578h120.116a162.37 162.37 0 0 1-60.058 11.578zm121.563-28.944a5.797 5.797 0 0 1-5.79 5.789H57.897a5.796 5.796 0 0 1-5.788-5.789V174.47h243.125v127.35zm11.577-40.862v-88.1a11.538 11.538 0 0 0 5.788-9.966V122.37a5.789 5.789 0 0 0-5.788-5.788H81.313l7.866-2.349.094-.028 52.002-15.527.03-.008c.106-.025.208-.05.311-.08l.08-.022 104.42-31.143c.2-.06.398-.133.59-.215l42.085-12.58c55.005 55.418 62.585 142.213 18.019 206.327z"/>
            </g>
        </g>
    </g>
</svg>
