<svg xmlns="http://www.w3.org/2000/svg" width="134" height="117" viewBox="0 0 134 117">
    <g fill="#F9A700" fill-rule="evenodd">
        <circle cx="4.5" cy="4.5" r="4.5"/>
        <circle cx="29.5" cy="4.5" r="4.5"/>
        <circle cx="54.5" cy="4.5" r="4.5"/>
        <circle cx="79.5" cy="4.5" r="4.5"/>
        <circle cx="104.5" cy="4.5" r="4.5"/>
        <circle cx="129.5" cy="4.5" r="4.5"/>
        <circle cx="4.5" cy="31.5" r="4.5"/>
        <circle cx="29.5" cy="31.5" r="4.5"/>
        <circle cx="54.5" cy="31.5" r="4.5"/>
        <circle cx="79.5" cy="31.5" r="4.5"/>
        <circle cx="104.5" cy="31.5" r="4.5"/>
        <circle cx="129.5" cy="31.5" r="4.5"/>
        <circle cx="4.5" cy="58.5" r="4.5"/>
        <circle cx="29.5" cy="58.5" r="4.5"/>
        <circle cx="54.5" cy="58.5" r="4.5"/>
        <circle cx="79.5" cy="58.5" r="4.5"/>
        <circle cx="104.5" cy="58.5" r="4.5"/>
        <circle cx="129.5" cy="58.5" r="4.5"/>
        <circle cx="4.5" cy="85.5" r="4.5"/>
        <circle cx="29.5" cy="85.5" r="4.5"/>
        <circle cx="54.5" cy="85.5" r="4.5"/>
        <circle cx="79.5" cy="85.5" r="4.5"/>
        <circle cx="104.5" cy="85.5" r="4.5"/>
        <circle cx="129.5" cy="85.5" r="4.5"/>
        <circle cx="4.5" cy="112.5" r="4.5"/>
        <circle cx="29.5" cy="112.5" r="4.5"/>
        <circle cx="54.5" cy="112.5" r="4.5"/>
        <circle cx="79.5" cy="112.5" r="4.5"/>
        <circle cx="104.5" cy="112.5" r="4.5"/>
        <circle cx="129.5" cy="112.5" r="4.5"/>
    </g>
</svg>
