<svg xmlns="http://www.w3.org/2000/svg" xmlns:xlink="http://www.w3.org/1999/xlink" width="206" height="32" viewBox="0 0 206 32">
    <defs>
        <path id="a" d="M.01.094h21.46V29.06H.01z"/>
        <path id="c" d="M.123.05h4.32v4.404H.123z"/>
    </defs>
    <g fill="none" fill-rule="evenodd">
        <g transform="translate(32.66 .071)">
            <mask id="b" fill="#fff">
                <use xlink:href="#a"/>
            </mask>
            <path fill="#FFF" d="M18.29.093c1.695 0 2.755.917 3.18 2.75V18.72c0 3.952-2.08 7.077-6.237 9.375-1.56.643-3.044.964-4.452.964-4.295 0-7.57-2.085-9.826-6.257-.63-1.381-.944-2.878-.944-4.492 0-3.967 1.935-7.092 5.805-9.376 1.477-.752 2.968-1.128 4.473-1.128h.574c1.408 0 2.4.8 2.975 2.4v.8c0 1.136-.753 2.01-2.257 2.626-1.3.096-2.264.294-2.892.595-1.656.998-2.483 2.414-2.483 4.246 0 2.202 1.183 3.686 3.55 4.452l.574.062h.533l-.164-.165-.164.165h.574c1.792 0 3.125-1.094 4-3.282l.165-1.17V3.376c0-1.573.78-2.633 2.338-3.18l.677-.103z" mask="url(#b)"/>
        </g>
        <path fill="#FFF" d="M66.915 7.878h.985c3.747 0 6.831 2.004 9.252 6.011.629 1.518.944 2.88.944 4.083v.861c-.48 1.723-1.382 2.585-2.708 2.585l-1.067.082h-6.175c-1.901 0-3.105-.622-3.61-1.866l-.267-1.17c.355-1.97 1.374-2.954 3.057-2.954h3.61c-.698-1.149-1.874-1.723-3.529-1.723-2.092 0-3.562 1.176-4.41 3.528l-.164 1.17c0 2.242 1.196 3.747 3.59 4.513.465.095 1.203.143 2.215.143h6.483c1.573 0 2.564.862 2.975 2.585v.739c-.452 1.723-1.354 2.585-2.708 2.585l-.903.081h-6.01c-3.748 0-6.531-.957-8.35-2.871-2.325-2.175-3.488-4.773-3.488-7.796 0-4.185 2.14-7.453 6.422-9.806 1.476-.52 2.762-.78 3.856-.78M162.818.74c1.819 0 2.838 1.114 3.057 3.343v14.71c0 1.75.95 3.084 2.851 4 .424.177.978.294 1.662.348 2.01 0 3.446-1.094 4.308-3.282.274-2.298.574-3.447.903-3.447 0-.273.697-.574 2.092-.902h.39c1.504 0 2.496.8 2.975 2.4l.082.533c0 4.363-2.23 7.666-6.688 9.909-1.49.52-2.824.78-4 .78-4.5 0-7.865-2.23-10.094-6.688-.45-1.286-.677-2.448-.677-3.488V3.447c0-1.203.848-2.106 2.544-2.708h.595zM86.8 18.566c0 2.175 1.21 3.673 3.63 4.493l1.047.082c1.955 0 3.364-1.094 4.226-3.282l.164-1.088v-.553c0-1.97-1.108-3.371-3.323-4.206l-1.047-.143h-.123c-2.16 0-3.63 1.169-4.41 3.508l-.165 1.19zm4.328-10.688h.493c3.91 0 7.022 1.942 9.334 5.826.793 1.573 1.19 3.16 1.19 4.76 0 4.02-1.963 7.2-5.888 9.54-1.56.751-3.105 1.127-4.636 1.127h-.493c-4.076 0-7.27-2.085-9.58-6.257-.63-1.531-.944-2.974-.944-4.328 0-4.103 1.962-7.283 5.888-9.54a10.09 10.09 0 0 1 4.636-1.128z"/>
        <path fill="#FFF" d="M102.596 18.566c0 2.175 1.21 3.673 3.632 4.493l1.046.082c1.955 0 3.364-1.094 4.226-3.282l.164-1.088v-.553c0-1.97-1.108-3.371-3.323-4.206l-1.047-.143h-.123c-2.161 0-3.63 1.169-4.41 3.508l-.165 1.19zm4.329-10.688h.492c3.911 0 7.023 1.942 9.334 5.826.794 1.573 1.19 3.16 1.19 4.76 0 4.02-1.962 7.2-5.887 9.54-1.56.751-3.105 1.127-4.637 1.127h-.492c-4.076 0-7.27-2.085-9.58-6.257-.63-1.531-.944-2.974-.944-4.328 0-4.103 1.962-7.283 5.888-9.54a10.09 10.09 0 0 1 4.636-1.128zM194.252 7.878h.575c3.87 0 7.166 1.354 9.888 4.062.26.588.39 1.136.39 1.641-.41 1.723-1.307 2.585-2.688 2.585l-.718.082c-.752-.15-1.62-.622-2.605-1.416a9 9 0 0 0-4.678-1.292c-2.722 0-4.082.356-4.082 1.067s1.661 1.067 4.985 1.067c2.626 0 5.204.889 7.734 2.667 1.367 1.19 2.051 2.543 2.051 4.062v.082c0 2.83-2.14 4.875-6.42 6.134-1.136.341-2.367.512-3.693.512h-1.067c-3.83 0-7.091-1.32-9.785-3.959-.206-.328-.37-.814-.493-1.456.3-1.915 1.21-2.872 2.729-2.872l.082-.082c1.066 0 2.27.574 3.61 1.723 1.354.656 2.858.985 4.513.985 2.558 0 3.837-.356 3.837-1.067 0-.438-.691-.766-2.072-.985-5.526 0-9.232-1.067-11.12-3.2-1.052-1.026-1.579-2.23-1.579-3.611 0-3.145 2.537-5.3 7.611-6.462.93-.177 1.928-.267 2.995-.267M3.303 7.878c1.258 0 2.195.8 2.81 2.4l.082 1.293v4.02c0 1.519 1.163 3.235 3.488 5.15l1.087 1.107c2.722-2.597 4.137-4.266 4.247-5.005.164-.52.246-1.21.246-2.072v-4.185c0-1.203.848-2.106 2.544-2.708h.82c1.888.37 2.831 1.436 2.831 3.2v3.94c0 3.145-1.019 5.716-3.056 7.713-4.021 4.212-6.332 6.319-6.934 6.319l-.739.081c-1.162 0-2.516-.93-4.062-2.79-3.87-3.638-5.82-5.935-5.846-6.892A8.566 8.566 0 0 1 0 15.756v-5.17C0 9.383.847 8.48 2.543 7.878h.759zM123.753 7.878c1.367 0 2.331.89 2.892 2.667v7.919c0 2.202 1.108 3.713 3.324 4.534l1.292.143c2.065 0 3.521-1.196 4.37-3.59 0-2.694 1.073-4.041 3.22-4.041 1.75 0 2.77 1.005 3.057 3.015 0 2.189 1.183 3.7 3.549 4.534l1.046.082c2.052 0 3.488-1.149 4.308-3.446l.164-1.334v-7.447c0-1.463.848-2.475 2.544-3.036h.76c1.312 0 2.249.766 2.81 2.298l.082.636v7.98c0 3.925-2.052 7.05-6.154 9.375-1.519.643-2.975.964-4.37.964h-.164c-3.187 0-5.751-1.052-7.693-3.16-1.847 2.108-4.397 3.16-7.652 3.16h-.164c-3.994 0-7.16-2.003-9.499-6.01-.683-1.518-1.025-2.961-1.025-4.33v-8.123c0-1.258.847-2.188 2.544-2.79h.759zM26.962 7.878c1.71 0 2.776.917 3.2 2.75v15.795c0 1.136-.745 2.004-2.236 2.606l-.697.102h-.534c-1.764-.423-2.646-1.292-2.646-2.605l-.082-.575v-14.79c0-1.546.718-2.578 2.154-3.098l.84-.185zm.164-7.631c1.464 0 2.475.861 3.036 2.585v.697c0 1.204-.848 2.106-2.544 2.708h-.594c-1.765 0-2.784-1.005-3.057-3.015 0-1.245.71-2.175 2.133-2.79l1.026-.185z"/>
        <path fill="#FFF" d="M112.988 6.309c-4.212.262-7.038-.329-9.864.754-2.826 1.084-3.73 4.496-3.73 4.496s-.902-3.412-3.728-4.496C92.84 5.98 90.013 6.571 85.8 6.31c-4.212-.263-5.572-4.857-5.572-4.857s.009 1.96.18 3.896c.3 3.38 3.18 4.767 4.512 4.932 3.2.393 4.89.306 8.932.459 3.655.139 5.542 6.662 5.542 6.662s1.886-6.523 5.542-6.662c4.04-.153 5.732-.066 8.931-.46 1.333-.164 4.213-1.55 4.512-4.93.172-1.938.18-3.897.18-3.897s-1.36 4.594-5.572 4.857M89.518 20.205v-3.368c0-.343.352-.573.666-.436l3.453 1.684c.38.166.38.706 0 .872l-3.453 1.684a.476.476 0 0 1-.666-.436"/>
        <g transform="translate(96.99 27.288)">
            <mask id="d" fill="#fff">
                <use xlink:href="#c"/>
            </mask>
            <path fill="#FFF" d="M3.967 4.454H.6a.476.476 0 0 1-.436-.666L1.847.335a.476.476 0 0 1 .872 0l1.684 3.453a.476.476 0 0 1-.436.666" mask="url(#d)"/>
        </g>
        <path fill="#FFF" d="M105.492 20.19v-3.37c0-.342.352-.572.666-.435l3.453 1.684c.38.166.38.706 0 .872l-3.453 1.684a.476.476 0 0 1-.666-.436"/>
    </g>
</svg>
