<svg xmlns="http://www.w3.org/2000/svg" width="145" height="348" viewBox="0 0 145 348">
    <g fill="none" fill-rule="nonzero">
        <path fill="#E3E7F2" d="M-23.144 312.719v-52.056a5.784 5.784 0 0 1 5.786-5.783h34.716a5.785 5.785 0 0 1 5.786 5.783v52.056h-46.288z"/>
        <path fill="#7FABFA" d="M-23.144 58.226h46.289c12.781 0 23.143 10.358 23.143 23.135v127.247c0 12.777-10.362 23.136-23.143 23.136h-46.289c-12.782 0-23.144-10.359-23.144-23.136V81.362c0-12.778 10.362-23.136 23.144-23.136z"/>
        <path fill="#A4C2F7" d="M-23.144 58.226h28.93c12.782 0 23.144 10.358 23.144 23.135v127.247c0 12.777-10.362 23.136-23.144 23.136h-28.93c-12.782 0-23.144-10.359-23.144-23.136V81.362c0-12.778 10.362-23.136 23.144-23.136z"/>
        <g fill="#E3E7F2">
            <path d="M-34.716 306.935h69.432c12.782 0 23.144 10.358 23.144 23.136v11.568H-57.86V330.07c0-12.778 10.362-23.136 23.144-23.136zM115.72 202.824H86.79a5.784 5.784 0 0 1-5.786-5.783v-80.976a5.785 5.785 0 0 1 5.786-5.783h28.93c12.782 0 23.144 10.358 23.144 23.135v46.272c0 12.777-10.362 23.135-23.143 23.135z"/>
        </g>
        <path fill="#FFF" d="M86.79 202.824h17.358a5.785 5.785 0 0 1-5.785-5.783v-80.976a5.785 5.785 0 0 1 5.785-5.783H86.79a5.784 5.784 0 0 0-5.786 5.783v80.976a5.785 5.785 0 0 0 5.786 5.783z"/>
        <g fill="#428DFF">
            <path d="M-63.601 329.956v11.577c0 1.535.608 3.008 1.693 4.094a5.78 5.78 0 0 0 4.089 1.695H57.82c1.533 0 3.004-.609 4.089-1.695a5.793 5.793 0 0 0 1.693-4.094v-11.577c-.019-15.978-12.95-28.925-28.91-28.944h-5.781v-40.52c-.008-6.392-5.18-11.57-11.565-11.578h-34.691c-6.384.007-11.557 5.186-11.564 11.577v40.52h-5.783c-15.958.02-28.89 12.967-28.91 28.945zm46.255-69.465l34.692-.008v40.53h-34.692V260.49zm-34.691 69.465c.01-9.587 7.77-17.356 17.345-17.367h69.384c9.575.01 17.335 7.78 17.345 17.367v5.788H-52.037v-5.788zM23.127 237.337c15.96-.02 28.891-12.967 28.91-28.944V81.042c-.019-15.978-12.95-28.925-28.91-28.944h-46.255c-15.959.02-28.891 12.966-28.91 28.944v127.351c.019 15.977 12.951 28.925 28.91 28.944h46.255zm-63.6-28.944h17.346a5.785 5.785 0 0 0 5.781-5.788 5.785 5.785 0 0 0-5.781-5.789h-17.346v-11.578h17.346a5.785 5.785 0 0 0 5.781-5.788 5.786 5.786 0 0 0-5.781-5.79h-17.346v-11.577h17.346a5.785 5.785 0 0 0 5.781-5.788 5.786 5.786 0 0 0-5.781-5.789h-17.346V138.93h17.346a5.785 5.785 0 0 0 5.781-5.789 5.786 5.786 0 0 0-5.781-5.788h-17.346v-11.578h17.346a5.785 5.785 0 0 0 5.781-5.788 5.785 5.785 0 0 0-5.781-5.789h-17.346V92.62h17.346a5.785 5.785 0 0 0 5.781-5.789 5.785 5.785 0 0 0-5.781-5.788h-17.346c.01-9.587 7.77-17.356 17.346-17.366h46.255c9.576.01 17.336 7.779 17.346 17.366H23.128a5.785 5.785 0 0 0-5.782 5.788 5.785 5.785 0 0 0 5.782 5.789h17.346v11.576H23.128a5.785 5.785 0 0 0-5.782 5.789 5.785 5.785 0 0 0 5.782 5.788h17.346v11.578H23.128a5.785 5.785 0 0 0-5.782 5.789 5.786 5.786 0 0 0 5.782 5.788h17.346v11.578H23.128a5.785 5.785 0 0 0-5.782 5.788 5.785 5.785 0 0 0 5.782 5.789h17.346v11.578H23.128a5.785 5.785 0 0 0-5.782 5.788 5.786 5.786 0 0 0 5.782 5.789h17.346v11.577H23.128a5.785 5.785 0 0 0-5.782 5.789 5.785 5.785 0 0 0 5.782 5.788h17.346c-.01 9.587-7.77 17.356-17.346 17.366h-46.255c-9.576-.01-17.336-7.778-17.346-17.365z"/>
            <path d="M17.346 0h-34.692c-51.068.058-92.452 41.491-92.51 92.619v11.577h-5.782c-15.959.02-28.891 12.967-28.91 28.944v46.31c.019 15.977 12.951 28.925 28.91 28.944h28.909c6.383-.008 11.557-5.186 11.564-11.578v-81.042c-.007-6.39-5.18-11.57-11.564-11.578h-11.564V92.62c.05-44.737 36.262-80.991 80.947-81.041h34.692c44.685.05 80.897 36.304 80.947 81.042v11.576H86.73c-6.383.008-11.557 5.187-11.564 11.578v81.042c.007 6.39 5.18 11.57 11.564 11.578h28.91c15.959-.02 28.89-12.967 28.91-28.944v-46.31c-.02-15.977-12.951-28.925-28.91-28.944h-5.782V92.62C109.798 41.49 68.414.059 17.346 0zM-86.723 196.815h-28.916c-9.575-.01-17.335-7.78-17.346-17.366v-46.31c.01-9.586 7.77-17.355 17.346-17.366h28.91l.006 81.042zm219.708-63.675v46.31c-.01 9.587-7.77 17.356-17.346 17.366h-28.91v-81.042h28.91c9.575.01 17.335 7.78 17.346 17.366z"/>
        </g>
    </g>
</svg>
