<svg xmlns="http://www.w3.org/2000/svg" xmlns:xlink="http://www.w3.org/1999/xlink" width="67" height="80" viewBox="0 0 67 80">
    <defs>
        <path id="a" d="M0 80h66.667V0H0z"/>
    </defs>
    <g fill="none" fill-rule="evenodd">
        <path fill="#E8EDFC" d="M1.693 75.787V8.213a2.893 2.893 0 0 1 2.894-2.88H62.44a2.893 2.893 0 0 1 2.893 2.88v67.574a2.893 2.893 0 0 1-2.893 2.88H4.587a2.893 2.893 0 0 1-2.894-2.88"/>
        <path fill="#CAD9FC" d="M62.44 5.333h-4a2.893 2.893 0 0 1 2.893 2.88v67.574a2.893 2.893 0 0 1-2.893 2.88h4a2.893 2.893 0 0 0 2.893-2.88V8.213a2.893 2.893 0 0 0-2.893-2.88"/>
        <path fill="#E8EDFC" d="M20 1.333h26.667c.736 0 1.333.597 1.333 1.334V8c0 .736-.597 1.333-1.333 1.333H20A1.333 1.333 0 0 1 18.667 8V2.667c0-.737.597-1.334 1.333-1.334"/>
        <path fill="#FFF" d="M22.667 2.667c0-.737.597-1.334 1.333-1.334h-4c-.736 0-1.333.597-1.333 1.334v2.666h4V2.667zM8.587 78.667a2.893 2.893 0 0 1-2.894-2.88V8.213a2.893 2.893 0 0 1 2.894-2.88h-4a2.893 2.893 0 0 0-2.894 2.88v67.574a2.893 2.893 0 0 0 2.894 2.88"/>
        <mask id="b" fill="#fff">
            <use xlink:href="#a"/>
        </mask>
        <path fill="#FFF" d="M0 20h2.667V9.333H0z" mask="url(#b)"/>
        <path fill="#428DFF" d="M1.333 16a1.333 1.333 0 1 1 0-2.666 1.333 1.333 0 0 1 0 2.666M66.667 56.24V9.333A5.333 5.333 0 0 0 61.333 4h-12V2.667A2.667 2.667 0 0 0 46.667 0H20a2.667 2.667 0 0 0-2.667 2.667V4h-12A5.333 5.333 0 0 0 0 9.333a1.334 1.334 0 0 0 2.667 0 2.667 2.667 0 0 1 2.666-2.666h12V8A2.667 2.667 0 0 0 20 10.667h26.667A2.667 2.667 0 0 0 49.333 8V6.667h12A2.667 2.667 0 0 1 64 9.333V56.24" mask="url(#b)"/>
        <path fill="#428DFF" d="M65.333 18.667c-.736 0-1.333.597-1.333 1.333v54.667a2.667 2.667 0 0 1-2.667 2.666h-56a2.666 2.666 0 0 1-2.666-2.666V20A1.333 1.333 0 0 0 0 20v54.667A5.333 5.333 0 0 0 5.333 80h56a5.333 5.333 0 0 0 5.334-5.333V20c0-.736-.597-1.333-1.334-1.333M20 8V2.667h26.667V8z" mask="url(#b)"/>
        <path fill="#428DFF" d="M30.067 20.134l.083-.06 10.222 7.763.625-.822-.622.94-10.222 8.626.666.79-.752-.848V20.134zm.06 18.529c.498-.001.98-.18 1.358-.502l10.223-8.628a2.142 2.142 0 0 0-.087-3.34l-10.22-7.763A2.121 2.121 0 0 0 28 20.134v16.39a2.135 2.135 0 0 0 2.127 2.139zM12 49.338a1.332 1.332 0 0 0 1.333 1.334h40a1.333 1.333 0 1 0 0-2.667h-40A1.331 1.331 0 0 0 12 49.338M13.334 57.338h40a1.333 1.333 0 1 0 0-2.666h-40a1.333 1.333 0 1 0 0 2.666M13.334 64.005h40a1.333 1.333 0 1 0 0-2.666h-40a1.333 1.333 0 1 0 0 2.666M13.334 70.672h40a1.333 1.333 0 0 0 0-2.667h-40a1.333 1.333 0 1 0 0 2.667" mask="url(#b)"/>
    </g>
</svg>
